<?xml version="1.0" encoding="UTF-8" standalone="no"?>
<!-- Generator: Adobe Illustrator 21.0.0, SVG Export Plug-In . SVG Version: 6.00 Build 0)  -->

<svg
   version="1.1"
   id="Layer_1"
   x="0px"
   y="0px"
   viewBox="0 0 601.49817 200"
   xml:space="preserve"
   sodipodi:docname="logo.svg"
   width="601.49817"
   height="200"
   inkscape:version="1.2.2 (b0a8486541, 2022-12-01)"
   xmlns:inkscape="http://www.inkscape.org/namespaces/inkscape"
   xmlns:sodipodi="http://sodipodi.sourceforge.net/DTD/sodipodi-0.dtd"
   xmlns="http://www.w3.org/2000/svg"
   xmlns:svg="http://www.w3.org/2000/svg"><defs
   id="defs1067" /><sodipodi:namedview
   id="namedview1065"
   pagecolor="#ffffff"
   bordercolor="#666666"
   borderopacity="1.0"
   inkscape:showpageshadow="2"
   inkscape:pageopacity="0.0"
   inkscape:pagecheckerboard="0"
   inkscape:deskcolor="#d1d1d1"
   showgrid="false"
   showguides="false"
   inkscape:zoom="1.4226563"
   inkscape:cx="504.33827"
   inkscape:cy="202.43822"
   inkscape:window-width="1898"
   inkscape:window-height="1019"
   inkscape:window-x="10"
   inkscape:window-y="28"
   inkscape:window-maximized="1"
   inkscape:current-layer="Layer_1"><sodipodi:guide
     position="61.6,173.6"
     orientation="1,0"
     id="guide2251"
     inkscape:locked="false" /><sodipodi:guide
     position="200,183.826"
     orientation="1,0"
     id="guide2253"
     inkscape:locked="false" /></sodipodi:namedview>

<path
   d="M 39.222,0 C 46.721,0 52.8,6.079 52.8,13.578 V 200 H 34.161 C 25.100948,200.00019 16.411987,196.40086 10.006,189.994 3.5991394,183.58801 -1.8764315e-4,174.89905 0,165.839 V 13.578 C 0,6.079 6.079,0 13.578,0 Z"
   style="clip-rule:evenodd;fill:#ff3333;fill-rule:evenodd;stroke-linejoin:round;stroke-miterlimit:2"
   id="path2074"
   sodipodi:nodetypes="ssccccsss" /><path
   d="M 138.4,0 V 16.174 C 138.4,36.401981 122.00198,52.8 101.774,52.8 H 13.444 C 6.019,52.8 0,46.781 0,39.356 V 13.444 C 0,6.019 6.019,0 13.444,0 Z"
   style="clip-rule:evenodd;fill:#ff3333;fill-rule:evenodd;stroke-linejoin:round;stroke-miterlimit:2"
   id="path2074-7"
   sodipodi:nodetypes="cssssssc" /><path
   d="m 89.030608,77.085289 v 16.174 c 0,20.227981 -16.398022,36.626001 -36.626002,36.626001 H 13.444 C 6.019,129.88529 0,123.86629 0,116.44129 V 90.529289 c 0,-7.425 6.019,-13.444 13.444,-13.444 z"
   style="clip-rule:evenodd;fill:#ff3333;fill-rule:evenodd;stroke-linejoin:round;stroke-miterlimit:2"
   id="path2074-7-3"
   sodipodi:nodetypes="cssssssc" /><path
   d="M 232.422,0 C 239.921,0 246,6.079 246,13.578 V 200 h -18.639 c -9.06005,1.9e-4 -17.74902,-3.59914 -24.155,-10.006 -6.40686,-6.40599 -10.00619,-15.09495 -10.006,-24.155 V 13.578 C 193.2,6.079 199.279,0 206.778,0 Z"
   style="clip-rule:evenodd;fill:#ff3333;fill-rule:evenodd;stroke-linejoin:round;stroke-miterlimit:2"
   id="path2074-9"
   sodipodi:nodetypes="ssccccsss" /><path
   d="m 288.8,0 v 16.174 c 0,20.227981 -16.39802,36.626 -36.626,36.626 h -88.33 C 156.419,52.8 150.4,46.781 150.4,39.356 V 13.444 C 150.4,6.019 156.419,0 163.844,0 Z"
   style="clip-rule:evenodd;fill:#ff3333;fill-rule:evenodd;stroke-linejoin:round;stroke-miterlimit:2"
   id="path2074-7-1"
   sodipodi:nodetypes="cssssssc" /><path
   d="m 993.71349,-320.9562 c 0.141,0.306 0.212,0.603 0.212,0.893 0,0.53 -0.208,0.98 -0.623,1.35 -0.415,0.37 -0.89,0.555 -1.422,0.555 a 1.78,1.78 0 0 1 -0.988,-0.29 c -0.297,-0.192 -0.533,-0.482 -0.705,-0.868 l -1.058,-2.435 h -7.616 l -1.082,2.435 c -0.172,0.386 -0.411,0.676 -0.717,0.868 -0.305,0.193 -0.638,0.29 -0.999,0.29 -0.533,0 -1.015,-0.185 -1.446,-0.555 -0.431,-0.37 -0.646,-0.82 -0.646,-1.35 0,-0.29 0.071,-0.587 0.212,-0.893 l 6.206,-13.07 c 0.203,-0.435 0.505,-0.768 0.905,-1.001 0.399,-0.233 0.842,-0.35 1.328,-0.35 0.47,0 0.909,0.117 1.316,0.35 0.408,0.233 0.713,0.566 0.917,1.001 z m -6.041,-4.123 -2.351,-5.378 -2.351,5.378 z m 15.44401,-5.306 c 0.988,0 1.869,0.261 2.645,0.784 0.776,0.522 1.379,1.258 1.81,2.206 0.431,0.949 0.647,2.034 0.647,3.256 0,1.222 -0.216,2.295 -0.647,3.22 -0.431,0.924 -1.03,1.635 -1.798,2.134 -0.768,0.498 -1.654,0.747 -2.657,0.747 a 4.524,4.524 0 0 1 -2.033,-0.458 c -0.619,-0.305 -1.10101,-0.715 -1.44601,-1.23 v 4.1 c 0,0.563 -0.188,1.013 -0.564,1.351 -0.376,0.337 -0.87,0.506 -1.481,0.506 -0.643,0 -1.16,-0.181 -1.551,-0.543 -0.392,-0.361 -0.588,-0.824 -0.588,-1.386 v -12.661 c 0,-0.595 0.184,-1.073 0.552,-1.435 0.369,-0.362 0.866,-0.543 1.493,-0.543 0.596,0 1.077,0.161 1.446,0.483 0.368,0.321 0.576,0.747 0.623,1.278 0.329,-0.563 0.81101,-1.005 1.44501,-1.327 a 4.596,4.596 0 0 1 2.104,-0.482 z m -1.269,9.14 c 0.721,0 1.273,-0.249 1.657,-0.748 0.384,-0.498 0.576,-1.213 0.576,-2.146 0,-0.981 -0.196,-1.732 -0.588,-2.255 -0.391,-0.522 -0.948,-0.784 -1.669,-0.784 -0.72,0 -1.277,0.258 -1.669,0.772 -0.39101,0.515 -0.58701,1.254 -0.58701,2.219 0,0.948 0.196,1.676 0.58701,2.182 0.392,0.507 0.956,0.76 1.693,0.76 z m 15.962,-9.14 c 0.987,0 1.869,0.261 2.644,0.784 0.776,0.522 1.38,1.258 1.811,2.206 0.431,0.949 0.646,2.034 0.646,3.256 0,1.222 -0.215,2.295 -0.646,3.22 -0.431,0.924 -1.031,1.635 -1.799,2.134 -0.768,0.498 -1.653,0.747 -2.656,0.747 a 4.526,4.526 0 0 1 -2.034,-0.458 c -0.619,-0.305 -1.101,-0.715 -1.445,-1.23 v 4.1 c 0,0.563 -0.188,1.013 -0.565,1.351 -0.376,0.337 -0.869,0.506 -1.481,0.506 -0.642,0 -1.159,-0.181 -1.551,-0.543 -0.392,-0.361 -0.588,-0.824 -0.588,-1.386 v -12.661 c 0,-0.595 0.184,-1.073 0.553,-1.435 0.368,-0.362 0.866,-0.543 1.492,-0.543 0.596,0 1.078,0.161 1.446,0.483 0.368,0.321 0.576,0.747 0.623,1.278 0.329,-0.563 0.811,-1.005 1.446,-1.327 a 4.596,4.596 0 0 1 2.104,-0.482 z m -1.27,9.14 c 0.721,0 1.274,-0.249 1.658,-0.748 0.384,-0.498 0.576,-1.213 0.576,-2.146 0,-0.981 -0.196,-1.732 -0.588,-2.255 -0.392,-0.522 -0.948,-0.784 -1.669,-0.784 -0.721,0 -1.277,0.258 -1.669,0.772 -0.392,0.515 -0.588,1.254 -0.588,2.219 0,0.948 0.196,1.676 0.588,2.182 0.392,0.507 0.956,0.76 1.692,0.76 z"
   style="clip-rule:evenodd;fill-rule:nonzero;stroke-linejoin:round;stroke-miterlimit:2"
   id="path2271" /><path
   d="m 422.13249,-475.3542 c 7.499,0 13.578,6.079 13.578,13.578 v 186.422 h -18.639 a 34.157,34.157 0 0 1 -24.155,-10.006 34.157,34.157 0 0 1 -10.006,-24.155 v -152.261 c 0,-7.499 6.079,-13.578 13.578,-13.578 z m 160.778,0 v 16.174 a 36.626,36.626 0 0 1 -36.626,36.626 h -88.33 c -7.425,0 -13.444,-6.019 -13.444,-13.444 v -25.912 c 0,-7.425 6.019,-13.444 13.444,-13.444 z"
   style="clip-rule:evenodd;fill:#ff3333;fill-rule:evenodd;stroke-linejoin:round;stroke-miterlimit:2"
   id="path2277" /><path
   d="m 526.39649,-377.5702 a 5.15,5.15 0 0 1 0,9.232 l -74.185,36.767 a 5.334,5.334 0 0 1 -7.701,-4.778 v -73.21 a 5.334,5.334 0 0 1 7.701,-4.778 z"
   style="clip-rule:evenodd;fill:#29abe1;fill-rule:evenodd;stroke-linejoin:round;stroke-miterlimit:2"
   id="path2279" /><path
   style="color:#000000;fill:#29abe1;stroke-linecap:round;-inkscape-stroke:none;paint-order:stroke markers fill"
   d="m 335.33203,68.541016 c -36.24124,0 -65.73047,29.487271 -65.73047,65.728514 0,36.24125 29.48923,65.73047 65.73047,65.73047 h 200.43555 c 36.24124,0 65.73047,-29.48922 65.73047,-65.73047 0,-36.241243 -29.48923,-65.728514 -65.73047,-65.728514 z m 0,20 h 200.43555 c 25.5072,0 45.73047,20.221314 45.73047,45.728514 0,25.5072 -20.22327,45.73047 -45.73047,45.73047 H 335.33203 c -25.5072,0 -45.73047,-20.22327 -45.73047,-45.73047 0,-25.5072 20.22327,-45.728514 45.73047,-45.728514 z"
   id="rect2125" /><g
   aria-label="SYNC"
   id="text1223-3"
   style="font-size:86.9104px;line-height:125%;font-family:Tahoma;-inkscape-font-specification:'Tahoma, Normal';letter-spacing:0px;word-spacing:0px;fill:#29abe1;stroke-width:4.074px"><path
     d="m 343.59872,154.12933 q 2.86804,0 4.69316,-0.43456 1.91203,-0.52146 3.04186,-1.30365 1.12984,-0.86911 1.56439,-1.99894 0.43455,-1.12984 0.43455,-2.5204 0,-2.95496 -2.78113,-4.86698 -2.78113,-1.99894 -9.56015,-4.25861 -2.95495,-1.04293 -5.9099,-2.34658 -2.95496,-1.39057 -5.30154,-3.38951 -2.34658,-2.08585 -3.82406,-4.95389 -1.47747,-2.95496 -1.47747,-7.12666 0,-4.1717 1.56438,-7.47429 1.56439,-3.38951 4.43244,-5.73609 2.86804,-2.34658 6.95283,-3.56332 4.08479,-1.30366 9.2125,-1.30366 6.08373,0 10.51616,1.30366 4.43243,1.30365 7.30047,2.86804 l -3.91097,10.68998 q -2.5204,-1.30366 -5.64917,-2.25967 -3.04187,-1.04293 -7.38739,-1.04293 -4.86698,0 -7.03974,1.39057 -2.08585,1.30366 -2.08585,4.08479 0,1.6513 0.7822,2.78113 0.78219,1.12984 2.17276,2.08585 1.47747,0.86911 3.30259,1.6513 1.91203,0.69528 4.1717,1.47748 4.69316,1.7382 8.16958,3.47641 3.47641,1.6513 5.73608,3.91097 2.34658,2.25967 3.47642,5.30153 1.12984,3.04187 1.12984,7.38739 0,8.43031 -5.90991,13.12347 -5.90991,4.60625 -17.81663,4.60625 -3.99788,0 -7.21357,-0.52146 -3.21568,-0.43455 -5.73608,-1.12984 -2.4335,-0.69528 -4.25861,-1.47747 -1.73821,-0.7822 -2.95496,-1.47748 l 3.82406,-10.77689 q 2.69422,1.47748 6.60519,2.69422 3.99788,1.12984 9.73397,1.12984 z"
     style="font-weight:bold;font-family:'Ubuntu Nerd Font';-inkscape-font-specification:'Ubuntu Nerd Font'"
     id="path1323" /><path
     d="m 398.96068,129.01222 q 3.65024,-6.17064 6.95284,-12.34128 3.30259,-6.17063 6.08372,-12.42818 h 14.94859 q -4.95389,9.73396 -10.25543,18.85955 -5.30153,9.1256 -11.21144,18.3381 v 23.03125 h -13.55802 v -22.85743 q -5.90991,-9.2125 -11.29835,-18.42501 -5.30154,-9.2125 -10.25543,-18.94646 h 15.73078 q 2.78114,6.25755 5.99682,12.42818 3.21569,6.17064 6.86592,12.34128 z"
     style="font-weight:bold;font-family:'Ubuntu Nerd Font';-inkscape-font-specification:'Ubuntu Nerd Font'"
     id="path1325" /><path
     d="m 474.74649,164.47166 q -5.82299,-10.34233 -12.602,-20.42394 -6.77902,-10.08161 -14.42713,-19.03338 v 39.45732 h -13.3842 v -60.2289 h 11.03762 q 2.86804,2.86804 6.34446,7.03974 3.47641,4.1717 7.03974,8.95177 3.65024,4.69316 7.21356,9.82088 3.56333,5.0408 6.6921,9.73396 v -35.54635 h 13.47112 v 60.2289 z"
     style="font-weight:bold;font-family:'Ubuntu Nerd Font';-inkscape-font-specification:'Ubuntu Nerd Font'"
     id="path1327" /><path
     d="m 527.50114,165.68841 q -14.68785,0 -22.42288,-8.16958 -7.64811,-8.16958 -7.64811,-23.20507 0,-7.4743 2.34658,-13.2973 2.34658,-5.9099 6.43137,-9.90778 4.08478,-4.08479 9.73396,-6.17064 5.64918,-2.08585 12.25437,-2.08585 3.82405,0 6.95283,0.60837 3.12877,0.52147 5.47535,1.30366 2.34659,0.69528 3.91097,1.47748 1.56439,0.78219 2.25967,1.21674 l -3.91097,10.95071 q -2.78113,-1.47747 -6.51828,-2.5204 -3.65023,-1.04292 -8.34339,-1.04292 -3.12878,0 -6.17064,1.04292 -2.95496,1.04293 -5.30154,3.38951 -2.25967,2.25967 -3.65023,5.9099 -1.39057,3.65024 -1.39057,8.86486 0,4.1717 0.8691,7.82194 0.95602,3.56333 2.95496,6.17064 2.08585,2.60731 5.38844,4.1717 3.3026,1.47747 7.99576,1.47747 2.95495,0 5.30153,-0.34764 2.34658,-0.34764 4.1717,-0.78219 1.82512,-0.52146 3.21569,-1.12984 1.39056,-0.60837 2.5204,-1.12983 l 3.73715,10.8638 q -2.86805,1.73821 -8.08267,3.12877 -5.21462,1.39057 -12.08055,1.39057 z"
     style="font-weight:bold;font-family:'Ubuntu Nerd Font';-inkscape-font-specification:'Ubuntu Nerd Font'"
     id="path1329" /></g><path
   id="path8176"
   style="overflow:visible;fill:#29abe1;stroke:#29abe1;stroke-width:10;stroke-linecap:round;paint-order:stroke markers fill;stop-color:#000000"
   d="M 371.96738,26.765934 A 21.765934,21.765934 0 0 1 350.20145,48.531868 21.765934,21.765934 0 0 1 328.43551,26.765934 21.765934,21.765934 0 0 1 350.20145,5 21.765934,21.765934 0 0 1 371.96738,26.765934 Z" /><circle
   style="color:#000000;overflow:visible;fill:#29abe1;fill-opacity:1;stroke:#29abe1;stroke-width:10;stroke-linecap:round;stroke-dasharray:none;stroke-opacity:1;paint-order:stroke markers fill;stop-color:#000000"
   id="path8176-7"
   cx="435.54993"
   cy="26.765934"
   r="21.765934" /><circle
   style="color:#000000;overflow:visible;fill:#29abe1;fill-opacity:1;stroke:#29abe1;stroke-width:10;stroke-linecap:round;stroke-dasharray:none;stroke-opacity:1;paint-order:stroke markers fill;stop-color:#000000"
   id="path8176-7-0"
   cx="520.89844"
   cy="26.765934"
   r="21.765934" /></svg>
