<?xml version="1.0" encoding="UTF-8" standalone="no"?>
<!-- Generator: Adobe Illustrator 21.0.0, SVG Export Plug-In . SVG Version: 6.00 Build 0)  -->

<svg
   version="1.1"
   id="Layer_1"
   x="0px"
   y="0px"
   viewBox="0 0 601.49817 200"
   xml:space="preserve"
   sodipodi:docname="logo.svg"
   width="601.49817"
   height="200"
   inkscape:version="1.2.2 (b0a8486541, 2022-12-01)"
   xmlns:inkscape="http://www.inkscape.org/namespaces/inkscape"
   xmlns:sodipodi="http://sodipodi.sourceforge.net/DTD/sodipodi-0.dtd"
   xmlns="http://www.w3.org/2000/svg"
   xmlns:svg="http://www.w3.org/2000/svg"><defs
   id="defs1067" /><sodipodi:namedview
   id="namedview1065"
   pagecolor="#ffffff"
   bordercolor="#666666"
   borderopacity="1.0"
   inkscape:showpageshadow="2"
   inkscape:pageopacity="0.0"
   inkscape:pagecheckerboard="0"
   inkscape:deskcolor="#d1d1d1"
   showgrid="false"
   showguides="false"
   inkscape:zoom="1.0059699"
   inkscape:cx="612.84139"
   inkscape:cy="259.4511"
   inkscape:window-width="1898"
   inkscape:window-height="1019"
   inkscape:window-x="10"
   inkscape:window-y="28"
   inkscape:window-maximized="1"
   inkscape:current-layer="Layer_1"><sodipodi:guide
     position="61.6,173.6"
     orientation="1,0"
     id="guide2251"
     inkscape:locked="false" /><sodipodi:guide
     position="200,183.826"
     orientation="1,0"
     id="guide2253"
     inkscape:locked="false" /></sodipodi:namedview>

<path
   d="M 39.222,0 C 46.721,0 52.8,6.079 52.8,13.578 V 200 H 34.161 C 25.100948,200.00019 16.411987,196.40086 10.006,189.994 3.5991394,183.58801 -1.8764315e-4,174.89905 0,165.839 V 13.578 C 0,6.079 6.079,0 13.578,0 Z"
   style="clip-rule:evenodd;fill:#ff3333;fill-rule:evenodd;stroke-linejoin:round;stroke-miterlimit:2"
   id="path2074"
   sodipodi:nodetypes="ssccccsss" /><path
   d="M 138.4,0 V 16.174 C 138.4,36.401981 122.00198,52.8 101.774,52.8 H 13.444 C 6.019,52.8 0,46.781 0,39.356 V 13.444 C 0,6.019 6.019,0 13.444,0 Z"
   style="clip-rule:evenodd;fill:#ff3333;fill-rule:evenodd;stroke-linejoin:round;stroke-miterlimit:2"
   id="path2074-7"
   sodipodi:nodetypes="cssssssc" /><path
   d="m 89.030608,77.085289 v 16.174 c 0,20.227981 -16.398022,36.626001 -36.626002,36.626001 H 13.444 C 6.019,129.88529 0,123.86629 0,116.44129 V 90.529289 c 0,-7.425 6.019,-13.444 13.444,-13.444 z"
   style="clip-rule:evenodd;fill:#ff3333;fill-rule:evenodd;stroke-linejoin:round;stroke-miterlimit:2"
   id="path2074-7-3"
   sodipodi:nodetypes="cssssssc" /><path
   d="M 232.422,0 C 239.921,0 246,6.079 246,13.578 V 200 h -18.639 c -9.06005,1.9e-4 -17.74902,-3.59914 -24.155,-10.006 -6.40686,-6.40599 -10.00619,-15.09495 -10.006,-24.155 V 13.578 C 193.2,6.079 199.279,0 206.778,0 Z"
   style="clip-rule:evenodd;fill:#ff3333;fill-rule:evenodd;stroke-linejoin:round;stroke-miterlimit:2"
   id="path2074-9"
   sodipodi:nodetypes="ssccccsss" /><path
   d="m 288.8,0 v 16.174 c 0,20.227981 -16.39802,36.626 -36.626,36.626 h -88.33 C 156.419,52.8 150.4,46.781 150.4,39.356 V 13.444 C 150.4,6.019 156.419,0 163.844,0 Z"
   style="clip-rule:evenodd;fill:#ff3333;fill-rule:evenodd;stroke-linejoin:round;stroke-miterlimit:2"
   id="path2074-7-1"
   sodipodi:nodetypes="cssssssc" /><path
   d="m 993.71349,-320.9562 c 0.141,0.306 0.212,0.603 0.212,0.893 0,0.53 -0.208,0.98 -0.623,1.35 -0.415,0.37 -0.89,0.555 -1.422,0.555 a 1.78,1.78 0 0 1 -0.988,-0.29 c -0.297,-0.192 -0.533,-0.482 -0.705,-0.868 l -1.058,-2.435 h -7.616 l -1.082,2.435 c -0.172,0.386 -0.411,0.676 -0.717,0.868 -0.305,0.193 -0.638,0.29 -0.999,0.29 -0.533,0 -1.015,-0.185 -1.446,-0.555 -0.431,-0.37 -0.646,-0.82 -0.646,-1.35 0,-0.29 0.071,-0.587 0.212,-0.893 l 6.206,-13.07 c 0.203,-0.435 0.505,-0.768 0.905,-1.001 0.399,-0.233 0.842,-0.35 1.328,-0.35 0.47,0 0.909,0.117 1.316,0.35 0.408,0.233 0.713,0.566 0.917,1.001 z m -6.041,-4.123 -2.351,-5.378 -2.351,5.378 z m 15.44401,-5.306 c 0.988,0 1.869,0.261 2.645,0.784 0.776,0.522 1.379,1.258 1.81,2.206 0.431,0.949 0.647,2.034 0.647,3.256 0,1.222 -0.216,2.295 -0.647,3.22 -0.431,0.924 -1.03,1.635 -1.798,2.134 -0.768,0.498 -1.654,0.747 -2.657,0.747 a 4.524,4.524 0 0 1 -2.033,-0.458 c -0.619,-0.305 -1.10101,-0.715 -1.44601,-1.23 v 4.1 c 0,0.563 -0.188,1.013 -0.564,1.351 -0.376,0.337 -0.87,0.506 -1.481,0.506 -0.643,0 -1.16,-0.181 -1.551,-0.543 -0.392,-0.361 -0.588,-0.824 -0.588,-1.386 v -12.661 c 0,-0.595 0.184,-1.073 0.552,-1.435 0.369,-0.362 0.866,-0.543 1.493,-0.543 0.596,0 1.077,0.161 1.446,0.483 0.368,0.321 0.576,0.747 0.623,1.278 0.329,-0.563 0.81101,-1.005 1.44501,-1.327 a 4.596,4.596 0 0 1 2.104,-0.482 z m -1.269,9.14 c 0.721,0 1.273,-0.249 1.657,-0.748 0.384,-0.498 0.576,-1.213 0.576,-2.146 0,-0.981 -0.196,-1.732 -0.588,-2.255 -0.391,-0.522 -0.948,-0.784 -1.669,-0.784 -0.72,0 -1.277,0.258 -1.669,0.772 -0.39101,0.515 -0.58701,1.254 -0.58701,2.219 0,0.948 0.196,1.676 0.58701,2.182 0.392,0.507 0.956,0.76 1.693,0.76 z m 15.962,-9.14 c 0.987,0 1.869,0.261 2.644,0.784 0.776,0.522 1.38,1.258 1.811,2.206 0.431,0.949 0.646,2.034 0.646,3.256 0,1.222 -0.215,2.295 -0.646,3.22 -0.431,0.924 -1.031,1.635 -1.799,2.134 -0.768,0.498 -1.653,0.747 -2.656,0.747 a 4.526,4.526 0 0 1 -2.034,-0.458 c -0.619,-0.305 -1.101,-0.715 -1.445,-1.23 v 4.1 c 0,0.563 -0.188,1.013 -0.565,1.351 -0.376,0.337 -0.869,0.506 -1.481,0.506 -0.642,0 -1.159,-0.181 -1.551,-0.543 -0.392,-0.361 -0.588,-0.824 -0.588,-1.386 v -12.661 c 0,-0.595 0.184,-1.073 0.553,-1.435 0.368,-0.362 0.866,-0.543 1.492,-0.543 0.596,0 1.078,0.161 1.446,0.483 0.368,0.321 0.576,0.747 0.623,1.278 0.329,-0.563 0.811,-1.005 1.446,-1.327 a 4.596,4.596 0 0 1 2.104,-0.482 z m -1.27,9.14 c 0.721,0 1.274,-0.249 1.658,-0.748 0.384,-0.498 0.576,-1.213 0.576,-2.146 0,-0.981 -0.196,-1.732 -0.588,-2.255 -0.392,-0.522 -0.948,-0.784 -1.669,-0.784 -0.721,0 -1.277,0.258 -1.669,0.772 -0.392,0.515 -0.588,1.254 -0.588,2.219 0,0.948 0.196,1.676 0.588,2.182 0.392,0.507 0.956,0.76 1.692,0.76 z"
   style="clip-rule:evenodd;fill-rule:nonzero;stroke-linejoin:round;stroke-miterlimit:2"
   id="path2271" /><path
   d="m 422.13249,-475.3542 c 7.499,0 13.578,6.079 13.578,13.578 v 186.422 h -18.639 a 34.157,34.157 0 0 1 -24.155,-10.006 34.157,34.157 0 0 1 -10.006,-24.155 v -152.261 c 0,-7.499 6.079,-13.578 13.578,-13.578 z m 160.778,0 v 16.174 a 36.626,36.626 0 0 1 -36.626,36.626 h -88.33 c -7.425,0 -13.444,-6.019 -13.444,-13.444 v -25.912 c 0,-7.425 6.019,-13.444 13.444,-13.444 z"
   style="clip-rule:evenodd;fill:#ff3333;fill-rule:evenodd;stroke-linejoin:round;stroke-miterlimit:2"
   id="path2277" /><path
   d="m 526.39649,-377.5702 a 5.15,5.15 0 0 1 0,9.232 l -74.185,36.767 a 5.334,5.334 0 0 1 -7.701,-4.778 v -73.21 a 5.334,5.334 0 0 1 7.701,-4.778 z"
   style="clip-rule:evenodd;fill:#29abe1;fill-rule:evenodd;stroke-linejoin:round;stroke-miterlimit:2"
   id="path2279" /><rect
   style="color:#000000;overflow:visible;fill:#ffffff;fill-opacity:1;stroke:#29abe1;stroke-width:24.5;stroke-linecap:round;stroke-dasharray:none;stroke-opacity:1;paint-order:stroke markers fill;stop-color:#000000"
   id="rect2125"
   width="311.89645"
   height="111.4594"
   x="277.35172"
   y="76.290604"
   rx="55.729698"
   ry="55.729698" /><text
   xml:space="preserve"
   style="font-style:normal;font-variant:normal;font-weight:normal;font-stretch:normal;font-size:86.9104px;line-height:125%;font-family:Tahoma;-inkscape-font-specification:'Tahoma, Normal';font-variant-ligatures:normal;font-variant-caps:normal;font-variant-numeric:normal;font-feature-settings:normal;text-align:start;letter-spacing:0px;word-spacing:0px;writing-mode:lr-tb;text-anchor:start;fill:#29abe1;fill-opacity:1;stroke:none;stroke-width:4.074px;stroke-linecap:butt;stroke-linejoin:miter;stroke-opacity:1"
   x="317.96982"
   y="162.22166"
   id="text1223-3"><tspan
     sodipodi:role="line"
     id="tspan1221-6"
     x="317.96982"
     y="162.22166"
     style="font-style:normal;font-variant:normal;font-weight:bold;font-stretch:normal;font-family:'Ubuntu Nerd Font';-inkscape-font-specification:'Ubuntu Nerd Font';fill:#29abe1;fill-opacity:1;stroke-width:4.074px">SYNC</tspan></text><circle
   style="color:#000000;overflow:visible;fill:#29abe1;fill-opacity:1;stroke:#29abe1;stroke-width:10;stroke-linecap:round;stroke-dasharray:none;stroke-opacity:1;paint-order:stroke markers fill;stop-color:#000000"
   id="path8176"
   cx="347.95145"
   cy="26.765934"
   r="21.765934" /><circle
   style="color:#000000;overflow:visible;fill:#29abe1;fill-opacity:1;stroke:#29abe1;stroke-width:10;stroke-linecap:round;stroke-dasharray:none;stroke-opacity:1;paint-order:stroke markers fill;stop-color:#000000"
   id="path8176-7"
   cx="433.29993"
   cy="26.765934"
   r="21.765934" /><circle
   style="color:#000000;overflow:visible;fill:#29abe1;fill-opacity:1;stroke:#29abe1;stroke-width:10;stroke-linecap:round;stroke-dasharray:none;stroke-opacity:1;paint-order:stroke markers fill;stop-color:#000000"
   id="path8176-7-0"
   cx="518.64844"
   cy="26.765934"
   r="21.765934" /></svg>
