<?xml version="1.0" encoding="UTF-8" standalone="no"?>
<!-- Generator: Adobe Illustrator 21.0.0, SVG Export Plug-In . SVG Version: 6.00 Build 0)  -->

<svg
   version="1.1"
   id="Layer_1"
   x="0px"
   y="0px"
   viewBox="0 0 244.31506 245.65654"
   xml:space="preserve"
   sodipodi:docname="logo_small.svg"
   width="244.31506"
   height="245.65654"
   inkscape:version="1.2.2 (b0a8486541, 2022-12-01)"
   xmlns:inkscape="http://www.inkscape.org/namespaces/inkscape"
   xmlns:sodipodi="http://sodipodi.sourceforge.net/DTD/sodipodi-0.dtd"
   xmlns="http://www.w3.org/2000/svg"
   xmlns:svg="http://www.w3.org/2000/svg"><defs
   id="defs1067" /><sodipodi:namedview
   id="namedview1065"
   pagecolor="#ffffff"
   bordercolor="#666666"
   borderopacity="1.0"
   inkscape:showpageshadow="2"
   inkscape:pageopacity="0.0"
   inkscape:pagecheckerboard="0"
   inkscape:deskcolor="#d1d1d1"
   showgrid="false"
   showguides="true"
   inkscape:zoom="1.0059699"
   inkscape:cx="583.01942"
   inkscape:cy="137.67807"
   inkscape:window-width="1898"
   inkscape:window-height="1000"
   inkscape:window-x="10"
   inkscape:window-y="48"
   inkscape:window-maximized="1"
   inkscape:current-layer="Layer_1"><sodipodi:guide
     position="83.757531,199.28897"
     orientation="1,0"
     id="guide2251"
     inkscape:locked="false" /><sodipodi:guide
     position="222.15753,209.51497"
     orientation="1,0"
     id="guide2253"
     inkscape:locked="false" /></sodipodi:namedview>

<rect
   style="color:#000000;overflow:visible;fill:none;stroke-width:96.7571;stroke-linecap:round;paint-order:stroke markers fill;stop-color:#000000"
   id="rect1326"
   width="244.31506"
   height="245.65654"
   x="0"
   y="0"
   rx="29.25576"
   ry="29.25576"
   inkscape:export-filename="logo_small.png"
   inkscape:export-xdpi="89"
   inkscape:export-ydpi="89" /><path
   d="m 1015.871,-300.98863 c 0.141,0.306 0.212,0.603 0.212,0.893 0,0.53 -0.208,0.98 -0.623,1.35 -0.415,0.37 -0.89,0.555 -1.422,0.555 a 1.78,1.78 0 0 1 -0.988,-0.29 c -0.297,-0.192 -0.533,-0.482 -0.705,-0.868 l -1.058,-2.435 h -7.616 l -1.082,2.435 c -0.172,0.386 -0.411,0.676 -0.717,0.868 -0.305,0.193 -0.638,0.29 -0.999,0.29 -0.533,0 -1.01498,-0.185 -1.44598,-0.555 -0.431,-0.37 -0.646,-0.82 -0.646,-1.35 0,-0.29 0.071,-0.587 0.212,-0.893 l 6.20598,-13.07 c 0.203,-0.435 0.505,-0.768 0.905,-1.001 0.399,-0.233 0.842,-0.35 1.328,-0.35 0.47,0 0.909,0.117 1.316,0.35 0.408,0.233 0.713,0.566 0.917,1.001 z m -6.041,-4.123 -2.351,-5.378 -2.351,5.378 z m 15.444,-5.306 c 0.988,0 1.869,0.261 2.645,0.784 0.776,0.522 1.379,1.258 1.81,2.206 0.431,0.949 0.647,2.034 0.647,3.256 0,1.222 -0.216,2.295 -0.647,3.22 -0.431,0.924 -1.03,1.635 -1.798,2.134 -0.768,0.498 -1.654,0.747 -2.657,0.747 a 4.524,4.524 0 0 1 -2.033,-0.458 c -0.619,-0.305 -1.101,-0.715 -1.446,-1.23 v 4.1 c 0,0.563 -0.188,1.013 -0.564,1.351 -0.376,0.337 -0.87,0.506 -1.481,0.506 -0.643,0 -1.16,-0.181 -1.551,-0.543 -0.392,-0.361 -0.588,-0.824 -0.588,-1.386 v -12.661 c 0,-0.595 0.184,-1.073 0.552,-1.435 0.369,-0.362 0.866,-0.543 1.493,-0.543 0.596,0 1.077,0.161 1.446,0.483 0.368,0.321 0.576,0.747 0.623,1.278 0.329,-0.563 0.811,-1.005 1.445,-1.327 a 4.596,4.596 0 0 1 2.104,-0.482 z m -1.269,9.14 c 0.721,0 1.273,-0.249 1.657,-0.748 0.384,-0.498 0.576,-1.213 0.576,-2.146 0,-0.981 -0.196,-1.732 -0.588,-2.255 -0.391,-0.522 -0.948,-0.784 -1.669,-0.784 -0.72,0 -1.277,0.258 -1.669,0.772 -0.391,0.515 -0.587,1.254 -0.587,2.219 0,0.948 0.196,1.676 0.587,2.182 0.392,0.507 0.956,0.76 1.693,0.76 z m 15.962,-9.14 c 0.987,0 1.869,0.261 2.644,0.784 0.776,0.522 1.38,1.258 1.811,2.206 0.431,0.949 0.646,2.034 0.646,3.256 0,1.222 -0.215,2.295 -0.646,3.22 -0.431,0.924 -1.031,1.635 -1.799,2.134 -0.768,0.498 -1.653,0.747 -2.656,0.747 a 4.526,4.526 0 0 1 -2.034,-0.458 c -0.619,-0.305 -1.101,-0.715 -1.445,-1.23 v 4.1 c 0,0.563 -0.188,1.013 -0.565,1.351 -0.376,0.337 -0.869,0.506 -1.481,0.506 -0.642,0 -1.159,-0.181 -1.551,-0.543 -0.392,-0.361 -0.588,-0.824 -0.588,-1.386 v -12.661 c 0,-0.595 0.184,-1.073 0.553,-1.435 0.368,-0.362 0.866,-0.543 1.492,-0.543 0.596,0 1.078,0.161 1.446,0.483 0.368,0.321 0.576,0.747 0.623,1.278 0.329,-0.563 0.811,-1.005 1.446,-1.327 a 4.596,4.596 0 0 1 2.104,-0.482 z m -1.27,9.14 c 0.721,0 1.274,-0.249 1.658,-0.748 0.384,-0.498 0.576,-1.213 0.576,-2.146 0,-0.981 -0.196,-1.732 -0.588,-2.255 -0.392,-0.522 -0.948,-0.784 -1.669,-0.784 -0.721,0 -1.277,0.258 -1.669,0.772 -0.392,0.515 -0.588,1.254 -0.588,2.219 0,0.948 0.196,1.676 0.588,2.182 0.392,0.507 0.956,0.76 1.692,0.76 z"
   style="clip-rule:evenodd;fill-rule:nonzero;stroke-linejoin:round;stroke-miterlimit:2"
   id="path2271" /><g
   id="g2063"
   transform="translate(22.157532,22.82827)"><path
     d="M 39.222,0 C 46.721,0 52.8,6.079 52.8,13.578 V 200 H 34.161 A 34.157,34.157 0 0 1 10.006,189.994 34.157,34.157 0 0 1 0,165.839 V 13.578 C 0,6.079 6.079,0 13.578,0 Z M 200,0 V 16.174 A 36.626,36.626 0 0 1 163.374,52.8 H 75.044 C 67.619,52.8 61.6,46.781 61.6,39.356 V 13.444 C 61.6,6.019 67.619,0 75.044,0 Z"
     style="clip-rule:evenodd;fill:#ff3333;fill-rule:evenodd;stroke-linejoin:round;stroke-miterlimit:2"
     id="path2074" /><path
     d="m 143.486,97.784 a 5.15,5.15 0 0 1 0,9.232 L 69.301,143.783 A 5.334,5.334 0 0 1 61.6,139.005 v -73.21 a 5.334,5.334 0 0 1 7.701,-4.778 z"
     style="clip-rule:evenodd;fill:#29abe1;fill-rule:evenodd;stroke-linejoin:round;stroke-miterlimit:2"
     id="path2076" /><g
     id="g3289"
     transform="matrix(0.69847281,0,0,0.69847281,-145.13834,70.295893)"><rect
       style="color:#000000;overflow:visible;fill:#ff3333;fill-opacity:1;stroke:none;stroke-width:105.761;stroke-linecap:round;paint-order:stroke markers fill;stop-color:#000000"
       id="rect2351"
       width="164.71678"
       height="72.351753"
       x="312.70401"
       y="113.34496"
       rx="22.855791"
       ry="22.855791" /><g
       aria-label="SYNC"
       id="text2145"
       style="font-size:69.926px;line-height:125%;font-family:Tahoma;-inkscape-font-specification:'Tahoma, Normal';letter-spacing:0px;word-spacing:0px;fill:#ffffff;stroke-width:3.27782px"><path
         d="m 340.86038,164.90457 q 2.1677,0 3.56622,-0.41956 1.46845,-0.48948 2.30756,-1.25867 0.83911,-0.83911 1.11882,-1.81807 0.34963,-1.04889 0.34963,-2.09778 0,-1.3286 -0.76919,-2.37749 -0.76919,-1.04889 -1.95793,-1.81807 -1.18874,-0.83912 -2.65719,-1.46845 -1.46844,-0.69926 -2.93689,-1.25867 -1.95793,-0.69926 -4.05571,-1.6083 -2.09778,-0.90903 -3.84593,-2.30755 -1.67822,-1.39852 -2.79704,-3.42638 -1.11881,-2.09778 -1.11881,-5.17452 0,-6.08356 3.91585,-9.50994 3.98579,-3.42637 10.90846,-3.42637 3.98578,0 6.92267,0.90903 3.00682,0.90904 5.03468,2.02786 l -2.51734,6.64297 q -1.74815,-0.97896 -3.91586,-1.67822 -2.09778,-0.69926 -4.89482,-0.69926 -6.85274,0 -6.85274,4.96474 0,1.25867 0.69926,2.23763 0.69926,0.90904 1.74815,1.67823 1.11881,0.69926 2.44741,1.25867 1.39852,0.5594 2.72711,1.04889 2.02785,0.76918 4.19556,1.74815 2.23763,0.90903 4.05571,2.51733 1.888,1.53837 3.07674,3.91586 1.18874,2.30756 1.18874,5.87378 0,6.08356 -3.98578,9.44001 -3.91585,3.28652 -11.95734,3.28652 -5.38431,0 -8.6009,-1.11881 -3.2166,-1.18874 -4.8249,-2.16771 l 2.51734,-6.9926 q 1.888,1.11882 4.47526,2.09778 2.65719,0.97897 6.4332,0.97897 z"
         style="font-weight:bold;font-family:'UbuntuMono Nerd Font';-inkscape-font-specification:'UbuntuMono Nerd Font'"
         id="path3317" /><path
         d="m 377.36175,147.70277 q 0.76918,-1.6083 1.74815,-4.05571 1.04889,-2.44741 2.02785,-5.17452 1.04889,-2.72712 1.95793,-5.52416 0.97896,-2.79704 1.74815,-5.03467 h 8.8806 q -1.32859,3.56623 -2.65718,6.92268 -1.3286,3.35644 -2.79704,6.64297 -1.46845,3.28652 -3.14668,6.57304 -1.67822,3.2166 -3.63615,6.64297 v 16.50254 h -8.67082 V 154.7653 q -3.84593,-6.78283 -6.78282,-13.21602 -2.86697,-6.50312 -5.52416,-13.63557 h 9.23023 q 1.6083,5.03467 3.56623,10.27912 1.95793,5.17453 4.05571,9.50994 z"
         style="font-weight:bold;font-family:'UbuntuMono Nerd Font';-inkscape-font-specification:'UbuntuMono Nerd Font'"
         id="path3319" /><path
         d="m 419.38728,171.19791 q -2.9369,-7.20238 -6.4332,-14.33483 -3.42637,-7.20238 -7.41215,-14.40476 v 28.73959 h -7.76179 v -43.2842 h 6.92268 q 1.95792,3.07675 3.91585,6.7129 1.95793,3.56622 3.77601,7.13245 1.888,3.56623 3.42637,6.92267 1.6083,3.35645 2.72711,5.87379 v -26.64181 h 7.76179 v 43.2842 z"
         style="font-weight:bold;font-family:'UbuntuMono Nerd Font';-inkscape-font-specification:'UbuntuMono Nerd Font'"
         id="path3321" /><path
         d="m 450.22465,172.10694 q -9.16031,0 -13.9852,-5.87378 -4.8249,-5.87378 -4.8249,-16.71231 0,-5.38431 1.46845,-9.57987 1.46844,-4.19556 4.05571,-7.06252 2.65718,-2.93689 6.22341,-4.40534 3.63615,-1.53837 7.90164,-1.53837 2.30756,0 4.12563,0.41955 1.88801,0.34963 3.28653,0.83911 1.39852,0.48949 2.30755,1.04889 0.97897,0.55941 1.46845,0.83912 l -2.23763,6.85275 q -1.6083,-1.04889 -3.91586,-1.74815 -2.23763,-0.76919 -5.17452,-0.76919 -2.02786,0 -3.98579,0.76919 -1.888,0.69926 -3.42637,2.44741 -1.46845,1.67822 -2.44741,4.54519 -0.90904,2.86696 -0.90904,7.13245 0,7.41215 2.51734,11.39794 2.58726,3.91585 8.39112,3.91585 3.35645,0 5.52415,-0.76918 2.23764,-0.76919 3.56623,-1.53838 l 2.16771,6.78283 q -1.81808,1.11881 -4.96475,2.09778 -3.07674,0.90903 -7.13245,0.90903 z"
         style="font-weight:bold;font-family:'UbuntuMono Nerd Font';-inkscape-font-specification:'UbuntuMono Nerd Font'"
         id="path3323" /></g></g></g><path
   d="m 444.29002,-455.38663 c 7.499,0 13.578,6.079 13.578,13.578 v 186.422 h -18.639 a 34.157,34.157 0 0 1 -24.155,-10.006 34.157,34.157 0 0 1 -10.006,-24.155 v -152.261 c 0,-7.499 6.079,-13.578 13.578,-13.578 z m 160.778,0 v 16.174 a 36.626,36.626 0 0 1 -36.626,36.626 h -88.33 c -7.425,0 -13.444,-6.019 -13.444,-13.444 v -25.912 c 0,-7.425 6.019,-13.444 13.444,-13.444 z"
   style="clip-rule:evenodd;fill:#ff3333;fill-rule:evenodd;stroke-linejoin:round;stroke-miterlimit:2"
   id="path2277" /><path
   d="m 548.55402,-357.60263 a 5.15,5.15 0 0 1 0,9.232 l -74.185,36.767 a 5.334,5.334 0 0 1 -7.701,-4.778 v -73.21 a 5.334,5.334 0 0 1 7.701,-4.778 z"
   style="clip-rule:evenodd;fill:#29abe1;fill-rule:evenodd;stroke-linejoin:round;stroke-miterlimit:2"
   id="path2279" /></svg>
