<?xml version="1.0" encoding="UTF-8" standalone="no"?>
<!-- Generator: Adobe Illustrator 21.0.0, SVG Export Plug-In . SVG Version: 6.00 Build 0)  -->

<svg
   version="1.1"
   id="Layer_1"
   x="0px"
   y="0px"
   viewBox="0 0 640 200"
   xml:space="preserve"
   sodipodi:docname="logo.svg"
   width="640"
   height="200"
   inkscape:version="1.2.2 (b0a8486541, 2022-12-01)"
   xmlns:inkscape="http://www.inkscape.org/namespaces/inkscape"
   xmlns:sodipodi="http://sodipodi.sourceforge.net/DTD/sodipodi-0.dtd"
   xmlns="http://www.w3.org/2000/svg"
   xmlns:svg="http://www.w3.org/2000/svg"><defs
   id="defs1067" /><sodipodi:namedview
   id="namedview1065"
   pagecolor="#ffffff"
   bordercolor="#666666"
   borderopacity="1.0"
   inkscape:showpageshadow="2"
   inkscape:pageopacity="0.0"
   inkscape:pagecheckerboard="0"
   inkscape:deskcolor="#d1d1d1"
   showgrid="false"
   showguides="true"
   inkscape:zoom="1.4226563"
   inkscape:cx="472.7073"
   inkscape:cy="188.38001"
   inkscape:window-width="1898"
   inkscape:window-height="1019"
   inkscape:window-x="10"
   inkscape:window-y="28"
   inkscape:window-maximized="1"
   inkscape:current-layer="Layer_1"><sodipodi:guide
     position="61.6,173.6"
     orientation="1,0"
     id="guide2251"
     inkscape:locked="false" /><sodipodi:guide
     position="200,183.826"
     orientation="1,0"
     id="guide2253"
     inkscape:locked="false" /></sodipodi:namedview>

<path
   d="M 39.222,0 C 46.721,0 52.8,6.079 52.8,13.578 V 200 H 34.161 A 34.157,34.157 0 0 1 10.006,189.994 34.157,34.157 0 0 1 0,165.839 V 13.578 C 0,6.079 6.079,0 13.578,0 Z M 200,0 V 16.174 A 36.626,36.626 0 0 1 163.374,52.8 H 75.044 C 67.619,52.8 61.6,46.781 61.6,39.356 V 13.444 C 61.6,6.019 67.619,0 75.044,0 Z"
   style="clip-rule:evenodd;fill:#ff3333;fill-rule:evenodd;stroke-linejoin:round;stroke-miterlimit:2"
   id="path2074" /><path
   d="m 143.486,97.784 a 5.15,5.15 0 0 1 0,9.232 L 69.301,143.783 A 5.334,5.334 0 0 1 61.6,139.005 v -73.21 a 5.334,5.334 0 0 1 7.701,-4.778 z"
   style="clip-rule:evenodd;fill:#29abe1;fill-rule:evenodd;stroke-linejoin:round;stroke-miterlimit:2"
   id="path2076" /><path
   d="m 993.71349,-320.9562 c 0.141,0.306 0.212,0.603 0.212,0.893 0,0.53 -0.208,0.98 -0.623,1.35 -0.415,0.37 -0.89,0.555 -1.422,0.555 a 1.78,1.78 0 0 1 -0.988,-0.29 c -0.297,-0.192 -0.533,-0.482 -0.705,-0.868 l -1.058,-2.435 h -7.616 l -1.082,2.435 c -0.172,0.386 -0.411,0.676 -0.717,0.868 -0.305,0.193 -0.638,0.29 -0.999,0.29 -0.533,0 -1.015,-0.185 -1.446,-0.555 -0.431,-0.37 -0.646,-0.82 -0.646,-1.35 0,-0.29 0.071,-0.587 0.212,-0.893 l 6.206,-13.07 c 0.203,-0.435 0.505,-0.768 0.905,-1.001 0.399,-0.233 0.842,-0.35 1.328,-0.35 0.47,0 0.909,0.117 1.316,0.35 0.408,0.233 0.713,0.566 0.917,1.001 z m -6.041,-4.123 -2.351,-5.378 -2.351,5.378 z m 15.44401,-5.306 c 0.988,0 1.869,0.261 2.645,0.784 0.776,0.522 1.379,1.258 1.81,2.206 0.431,0.949 0.647,2.034 0.647,3.256 0,1.222 -0.216,2.295 -0.647,3.22 -0.431,0.924 -1.03,1.635 -1.798,2.134 -0.768,0.498 -1.654,0.747 -2.657,0.747 a 4.524,4.524 0 0 1 -2.033,-0.458 c -0.619,-0.305 -1.10101,-0.715 -1.44601,-1.23 v 4.1 c 0,0.563 -0.188,1.013 -0.564,1.351 -0.376,0.337 -0.87,0.506 -1.481,0.506 -0.643,0 -1.16,-0.181 -1.551,-0.543 -0.392,-0.361 -0.588,-0.824 -0.588,-1.386 v -12.661 c 0,-0.595 0.184,-1.073 0.552,-1.435 0.369,-0.362 0.866,-0.543 1.493,-0.543 0.596,0 1.077,0.161 1.446,0.483 0.368,0.321 0.576,0.747 0.623,1.278 0.329,-0.563 0.81101,-1.005 1.44501,-1.327 a 4.596,4.596 0 0 1 2.104,-0.482 z m -1.269,9.14 c 0.721,0 1.273,-0.249 1.657,-0.748 0.384,-0.498 0.576,-1.213 0.576,-2.146 0,-0.981 -0.196,-1.732 -0.588,-2.255 -0.391,-0.522 -0.948,-0.784 -1.669,-0.784 -0.72,0 -1.277,0.258 -1.669,0.772 -0.39101,0.515 -0.58701,1.254 -0.58701,2.219 0,0.948 0.196,1.676 0.58701,2.182 0.392,0.507 0.956,0.76 1.693,0.76 z m 15.962,-9.14 c 0.987,0 1.869,0.261 2.644,0.784 0.776,0.522 1.38,1.258 1.811,2.206 0.431,0.949 0.646,2.034 0.646,3.256 0,1.222 -0.215,2.295 -0.646,3.22 -0.431,0.924 -1.031,1.635 -1.799,2.134 -0.768,0.498 -1.653,0.747 -2.656,0.747 a 4.526,4.526 0 0 1 -2.034,-0.458 c -0.619,-0.305 -1.101,-0.715 -1.445,-1.23 v 4.1 c 0,0.563 -0.188,1.013 -0.565,1.351 -0.376,0.337 -0.869,0.506 -1.481,0.506 -0.642,0 -1.159,-0.181 -1.551,-0.543 -0.392,-0.361 -0.588,-0.824 -0.588,-1.386 v -12.661 c 0,-0.595 0.184,-1.073 0.553,-1.435 0.368,-0.362 0.866,-0.543 1.492,-0.543 0.596,0 1.078,0.161 1.446,0.483 0.368,0.321 0.576,0.747 0.623,1.278 0.329,-0.563 0.811,-1.005 1.446,-1.327 a 4.596,4.596 0 0 1 2.104,-0.482 z m -1.27,9.14 c 0.721,0 1.274,-0.249 1.658,-0.748 0.384,-0.498 0.576,-1.213 0.576,-2.146 0,-0.981 -0.196,-1.732 -0.588,-2.255 -0.392,-0.522 -0.948,-0.784 -1.669,-0.784 -0.721,0 -1.277,0.258 -1.669,0.772 -0.392,0.515 -0.588,1.254 -0.588,2.219 0,0.948 0.196,1.676 0.588,2.182 0.392,0.507 0.956,0.76 1.692,0.76 z"
   style="clip-rule:evenodd;fill-rule:nonzero;stroke-linejoin:round;stroke-miterlimit:2"
   id="path2271" /><g
   id="g3289"
   transform="matrix(0.7800028,0,0,0.7800028,-22.693503,30.875829)"><rect
     style="color:#000000;overflow:visible;fill:#ff3333;fill-opacity:1;stroke:none;stroke-width:105.761;stroke-linecap:round;paint-order:stroke markers fill;stop-color:#000000"
     id="rect2351"
     width="164.71678"
     height="72.351753"
     x="312.70401"
     y="113.34496"
     rx="22.855791"
     ry="22.855791" /><g
     aria-label="SYNC"
     id="text2145"
     style="font-size:69.926px;line-height:125%;font-family:Tahoma;-inkscape-font-specification:'Tahoma, Normal';letter-spacing:0px;word-spacing:0px;fill:#ffffff;stroke-width:3.27782px"><path
       d="m 340.86038,164.90457 q 2.1677,0 3.56622,-0.41956 1.46845,-0.48948 2.30756,-1.25867 0.83911,-0.83911 1.11882,-1.81807 0.34963,-1.04889 0.34963,-2.09778 0,-1.3286 -0.76919,-2.37749 -0.76919,-1.04889 -1.95793,-1.81807 -1.18874,-0.83912 -2.65719,-1.46845 -1.46844,-0.69926 -2.93689,-1.25867 -1.95793,-0.69926 -4.05571,-1.6083 -2.09778,-0.90903 -3.84593,-2.30755 -1.67822,-1.39852 -2.79704,-3.42638 -1.11881,-2.09778 -1.11881,-5.17452 0,-6.08356 3.91585,-9.50994 3.98579,-3.42637 10.90846,-3.42637 3.98578,0 6.92267,0.90903 3.00682,0.90904 5.03468,2.02786 l -2.51734,6.64297 q -1.74815,-0.97896 -3.91586,-1.67822 -2.09778,-0.69926 -4.89482,-0.69926 -6.85274,0 -6.85274,4.96474 0,1.25867 0.69926,2.23763 0.69926,0.90904 1.74815,1.67823 1.11881,0.69926 2.44741,1.25867 1.39852,0.5594 2.72711,1.04889 2.02785,0.76918 4.19556,1.74815 2.23763,0.90903 4.05571,2.51733 1.888,1.53837 3.07674,3.91586 1.18874,2.30756 1.18874,5.87378 0,6.08356 -3.98578,9.44001 -3.91585,3.28652 -11.95734,3.28652 -5.38431,0 -8.6009,-1.11881 -3.2166,-1.18874 -4.8249,-2.16771 l 2.51734,-6.9926 q 1.888,1.11882 4.47526,2.09778 2.65719,0.97897 6.4332,0.97897 z"
       style="font-weight:bold;font-family:'UbuntuMono Nerd Font';-inkscape-font-specification:'UbuntuMono Nerd Font'"
       id="path3317" /><path
       d="m 377.36175,147.70277 q 0.76918,-1.6083 1.74815,-4.05571 1.04889,-2.44741 2.02785,-5.17452 1.04889,-2.72712 1.95793,-5.52416 0.97896,-2.79704 1.74815,-5.03467 h 8.8806 q -1.32859,3.56623 -2.65718,6.92268 -1.3286,3.35644 -2.79704,6.64297 -1.46845,3.28652 -3.14668,6.57304 -1.67822,3.2166 -3.63615,6.64297 v 16.50254 h -8.67082 V 154.7653 q -3.84593,-6.78283 -6.78282,-13.21602 -2.86697,-6.50312 -5.52416,-13.63557 h 9.23023 q 1.6083,5.03467 3.56623,10.27912 1.95793,5.17453 4.05571,9.50994 z"
       style="font-weight:bold;font-family:'UbuntuMono Nerd Font';-inkscape-font-specification:'UbuntuMono Nerd Font'"
       id="path3319" /><path
       d="m 419.38728,171.19791 q -2.9369,-7.20238 -6.4332,-14.33483 -3.42637,-7.20238 -7.41215,-14.40476 v 28.73959 h -7.76179 v -43.2842 h 6.92268 q 1.95792,3.07675 3.91585,6.7129 1.95793,3.56622 3.77601,7.13245 1.888,3.56623 3.42637,6.92267 1.6083,3.35645 2.72711,5.87379 v -26.64181 h 7.76179 v 43.2842 z"
       style="font-weight:bold;font-family:'UbuntuMono Nerd Font';-inkscape-font-specification:'UbuntuMono Nerd Font'"
       id="path3321" /><path
       d="m 450.22465,172.10694 q -9.16031,0 -13.9852,-5.87378 -4.8249,-5.87378 -4.8249,-16.71231 0,-5.38431 1.46845,-9.57987 1.46844,-4.19556 4.05571,-7.06252 2.65718,-2.93689 6.22341,-4.40534 3.63615,-1.53837 7.90164,-1.53837 2.30756,0 4.12563,0.41955 1.88801,0.34963 3.28653,0.83911 1.39852,0.48949 2.30755,1.04889 0.97897,0.55941 1.46845,0.83912 l -2.23763,6.85275 q -1.6083,-1.04889 -3.91586,-1.74815 -2.23763,-0.76919 -5.17452,-0.76919 -2.02786,0 -3.98579,0.76919 -1.888,0.69926 -3.42637,2.44741 -1.46845,1.67822 -2.44741,4.54519 -0.90904,2.86696 -0.90904,7.13245 0,7.41215 2.51734,11.39794 2.58726,3.91585 8.39112,3.91585 3.35645,0 5.52415,-0.76918 2.23764,-0.76919 3.56623,-1.53838 l 2.16771,6.78283 q -1.81808,1.11881 -4.96475,2.09778 -3.07674,0.90903 -7.13245,0.90903 z"
       style="font-weight:bold;font-family:'UbuntuMono Nerd Font';-inkscape-font-specification:'UbuntuMono Nerd Font'"
       id="path3323" /></g></g><path
   d="m 227.3505,92.418212 c -1.853,0 -3.339,-0.575 -4.457,-1.725 -1.118,-1.15 -1.677,-2.652 -1.677,-4.504 v -56.063 c 0,-1.853 0.527,-3.29 1.582,-4.312 1.054,-1.023 2.507,-1.534 4.36,-1.534 h 33.638 c 3.897,0 5.845,1.661 5.845,4.984 0,3.258 -1.948,4.887 -5.845,4.887 h -27.409 v 18.4 h 25.492 c 3.897,0 5.846,1.661 5.846,4.983 0,3.259 -1.949,4.888 -5.846,4.888 h -25.492 v 23.767 c 0,1.852 -0.543,3.354 -1.629,4.504 -1.086,1.15 -2.556,1.725 -4.408,1.725 z m 67.256,-48.396 c 1.503,-0.128 2.688,0.223 3.555,1.054 0.868,0.831 1.301,2.076 1.301,3.737 0,1.725 -0.376,3.003 -1.127,3.834 -0.752,0.83 -2.11,1.373 -4.076,1.629 l -2.601,0.287 c -3.411,0.384 -5.911,1.662 -7.501,3.834 -1.59,2.172 -2.385,4.887 -2.385,8.146 v 20.125 c 0,1.852 -0.52,3.274 -1.561,4.264 -1.04,0.991 -2.341,1.486 -3.902,1.486 -1.561,0 -2.847,-0.495 -3.858,-1.486 -1.012,-0.99 -1.518,-2.412 -1.518,-4.264 v -37.088 c 0,-1.789 0.506,-3.162 1.518,-4.121 1.011,-0.958 2.269,-1.437 3.772,-1.437 1.503,0 2.717,0.463 3.642,1.389 0.925,0.927 1.387,2.252 1.387,3.977 v 3.834 c 1.098,-2.811 2.732,-4.984 4.899,-6.517 a 14.06,14.06 0 0 1 7.241,-2.587 z m 51.018,34.979 c 1.136,0 2.054,0.415 2.756,1.246 0.701,0.83 1.052,1.948 1.052,3.354 0,1.981 -1.236,3.642 -3.708,4.983 -2.272,1.214 -4.844,2.189 -7.717,2.923 -2.873,0.735 -5.612,1.102 -8.218,1.102 -7.884,0 -14.131,-2.172 -18.741,-6.516 -4.61,-4.345 -6.915,-10.286 -6.915,-17.825 0,-4.792 1.002,-9.041 3.007,-12.746 2.004,-3.706 4.827,-6.581 8.468,-8.625 3.641,-2.045 7.767,-3.067 12.377,-3.067 4.41,0 8.252,0.927 11.525,2.779 3.274,1.853 5.813,4.473 7.617,7.859 1.804,3.386 2.706,7.379 2.706,11.979 0,2.747 -1.269,4.121 -3.808,4.121 h -29.565 c 0.401,4.408 1.704,7.65 3.909,9.727 2.204,2.076 5.411,3.114 9.621,3.114 2.138,0 4.025,-0.255 5.662,-0.766 1.637,-0.511 3.491,-1.214 5.562,-2.109 2.005,-1.022 3.474,-1.533 4.41,-1.533 z m -17.338,-26.738 c -3.408,0 -6.13,1.023 -8.168,3.067 -2.038,2.045 -3.257,4.983 -3.658,8.817 h 22.65 c -0.134,-3.897 -1.136,-6.852 -3.007,-8.865 -1.871,-2.012 -4.477,-3.019 -7.817,-3.019 z m 71.696,26.738 c 1.136,0 2.055,0.415 2.756,1.246 0.702,0.83 1.052,1.948 1.052,3.354 0,1.981 -1.236,3.642 -3.708,4.983 -2.271,1.214 -4.844,2.189 -7.717,2.923 -2.872,0.735 -5.612,1.102 -8.218,1.102 -7.883,0 -14.13,-2.172 -18.741,-6.516 -4.61,-4.345 -6.915,-10.286 -6.915,-17.825 0,-4.792 1.003,-9.041 3.007,-12.746 2.004,-3.706 4.827,-6.581 8.468,-8.625 3.642,-2.045 7.767,-3.067 12.378,-3.067 4.409,0 8.251,0.927 11.525,2.779 3.274,1.853 5.812,4.473 7.616,7.859 1.804,3.386 2.706,7.379 2.706,11.979 0,2.747 -1.269,4.121 -3.808,4.121 h -29.565 c 0.401,4.408 1.704,7.65 3.909,9.727 2.205,2.076 5.412,3.114 9.621,3.114 2.138,0 4.025,-0.255 5.662,-0.766 1.637,-0.511 3.491,-1.214 5.562,-2.109 2.005,-1.022 3.475,-1.533 4.41,-1.533 z m -17.338,-26.738 c -3.407,0 -6.13,1.023 -8.168,3.067 -2.037,2.045 -3.257,4.983 -3.658,8.817 h 22.65 c -0.134,-3.897 -1.136,-6.852 -3.007,-8.865 -1.87,-2.012 -4.476,-3.019 -7.817,-3.019 z"
   style="clip-rule:evenodd;fill:#ff3333;fill-rule:nonzero;stroke-linejoin:round;stroke-miterlimit:2"
   id="path2273" /><path
   d="m 437.5915,92.418212 c -2.137,0 -4.861,-0.672 -6.173,-2.016 -1.313,-1.343 -1.969,-3.135 -1.969,-5.374 v -48.56 h -13.833 c -4.517,0 -6.775,-2.047 -6.775,-6.142 0,-4.03 2.258,-6.046 6.775,-6.046 h 43.949 c 4.517,0 6.776,2.016 6.776,6.046 0,4.095 -2.259,6.142 -6.776,6.142 h -13.833 v 48.56 c 0,2.239 -0.64,4.031 -1.922,5.374 -1.282,1.344 -4.022,2.016 -6.219,2.016 z m 63.083,-48.088 c 2.236,0 4.009,0.607 5.319,1.821 1.31,1.214 1.964,2.875 1.964,4.983 v 35.171 c 0,1.981 -0.686,3.578 -2.06,4.792 -1.374,1.214 -3.147,1.821 -5.319,1.821 -2.044,0 -3.673,-0.575 -4.887,-1.725 -1.214,-1.15 -1.821,-2.684 -1.821,-4.6 v -0.959 c -1.47,2.428 -3.402,4.281 -5.798,5.559 -2.396,1.277 -5.095,1.916 -8.098,1.916 -5.942,0 -10.366,-1.645 -13.273,-4.935 -2.907,-3.29 -4.36,-8.258 -4.36,-14.902 v -22.138 c 0,-2.108 0.655,-3.769 1.964,-4.983 1.31,-1.214 3.083,-1.821 5.319,-1.821 2.236,0 3.993,0.607 5.271,1.821 1.278,1.214 1.917,2.875 1.917,4.983 v 22.425 c 0,2.811 0.591,4.888 1.772,6.23 1.182,1.341 2.987,2.012 5.415,2.012 2.811,0 5.095,-0.958 6.852,-2.875 1.757,-1.917 2.636,-4.44 2.636,-7.571 v -20.221 c 0,-2.108 0.638,-3.769 1.916,-4.983 1.278,-1.214 3.035,-1.821 5.271,-1.821 z m 48.117,-0.191 c 4.171,-10e-4 7.853,0.99 11.046,2.97 3.193,1.981 5.686,4.808 7.478,8.482 1.792,3.673 2.688,7.938 2.688,12.793 0,4.856 -0.896,9.152 -2.688,12.89 -1.792,3.737 -4.301,6.644 -7.527,8.721 -3.226,2.076 -6.891,3.114 -10.997,3.114 -3.324,0 -6.321,-0.686 -8.993,-2.06 -2.672,-1.374 -4.725,-3.274 -6.159,-5.702 v 0.766 c 0,2.045 -0.651,3.69 -1.955,4.936 -1.303,1.246 -3.063,1.869 -5.278,1.869 -2.216,0 -3.992,-0.623 -5.328,-1.869 -1.336,-1.246 -2.004,-2.891 -2.004,-4.936 v -55.2 c 0,-1.98 0.701,-3.577 2.102,-4.791 1.401,-1.214 3.242,-1.821 5.523,-1.821 2.15,0 3.877,0.575 5.181,1.725 1.303,1.15 1.955,2.683 1.955,4.6 v 20.987 c 1.433,-2.363 3.47,-4.2 6.109,-5.51 2.64,-1.31 5.588,-1.965 8.847,-1.965 z m -4.301,37.95 c 3.454,0 6.126,-1.197 8.016,-3.593 1.889,-2.396 2.834,-5.766 2.834,-10.111 0,-4.28 -0.945,-7.555 -2.834,-9.823 -1.89,-2.268 -4.562,-3.402 -8.016,-3.402 -3.454,0 -6.126,1.166 -8.016,3.498 -1.89,2.332 -2.835,5.638 -2.835,9.919 0,4.344 0.945,7.683 2.835,10.015 1.89,2.332 4.562,3.498 8.016,3.498 z m 75.45601,-3.738 c 1.385,0 2.511,0.511 3.377,1.533 0.865,1.023 1.298,2.332 1.298,3.929 0,1.087 -0.346,2.093 -1.039,3.019 -0.692,0.927 -1.662,1.709 -2.909,2.348 -2.354,1.15 -5.09,2.093 -8.207,2.827 -3.117,0.735 -5.991,1.102 -8.623,1.102 -5.54101,0 -10.37201,-0.99 -14.49301,-2.971 -4.121,-1.98 -7.289,-4.807 -9.506,-8.481 -2.216,-3.673 -3.324,-8.002 -3.324,-12.985 0,-4.792 1.073,-9.04 3.221,-12.746 2.147,-3.706 5.125,-6.597 8.934,-8.673 3.809,-2.076 8.138,-3.115 12.986,-3.115 4.64101,0 8.71001,0.943 12.20801,2.828 3.497,1.884 6.216,4.568 8.155,8.05 1.939,3.482 2.909,7.554 2.909,12.218 0,1.406 -0.364,2.476 -1.091,3.211 -0.727,0.734 -1.749,1.102 -3.065,1.102 H 591.6885 c 0.485,3.769 1.731,6.501 3.74,8.194 2.009,1.693 4.883,2.539 8.62301,2.539 2.009,0 3.809,-0.223 5.402,-0.671 1.593,-0.447 3.359,-1.054 5.299,-1.821 a 44.52,44.52 0 0 1 2.805,-1.006 c 0.9,-0.287 1.697,-0.431 2.389,-0.431 z m -17.869,-24.246 c -2.97801,0 -5.36801,0.879 -7.16801,2.636 -1.801,1.757 -2.875,4.296 -3.221,7.618 h 20.05101 c -0.208,-3.386 -1.126,-5.941 -2.753,-7.666 -1.628,-1.725 -3.931,-2.588 -6.909,-2.588 z"
   style="clip-rule:evenodd;fill:#29abe1;fill-rule:nonzero;stroke-linejoin:round;stroke-miterlimit:2"
   id="path2275" /><path
   d="m 422.13249,-475.3542 c 7.499,0 13.578,6.079 13.578,13.578 v 186.422 h -18.639 a 34.157,34.157 0 0 1 -24.155,-10.006 34.157,34.157 0 0 1 -10.006,-24.155 v -152.261 c 0,-7.499 6.079,-13.578 13.578,-13.578 z m 160.778,0 v 16.174 a 36.626,36.626 0 0 1 -36.626,36.626 h -88.33 c -7.425,0 -13.444,-6.019 -13.444,-13.444 v -25.912 c 0,-7.425 6.019,-13.444 13.444,-13.444 z"
   style="clip-rule:evenodd;fill:#ff3333;fill-rule:evenodd;stroke-linejoin:round;stroke-miterlimit:2"
   id="path2277" /><path
   d="m 526.39649,-377.5702 a 5.15,5.15 0 0 1 0,9.232 l -74.185,36.767 a 5.334,5.334 0 0 1 -7.701,-4.778 v -73.21 a 5.334,5.334 0 0 1 7.701,-4.778 z"
   style="clip-rule:evenodd;fill:#29abe1;fill-rule:evenodd;stroke-linejoin:round;stroke-miterlimit:2"
   id="path2279" /></svg>
